<svg width="350" height="350" viewBox="0 0 350 350" fill="none" xmlns="http://www.w3.org/2000/svg">
<path d="M350 175C350 271.65 271.65 350 175 350C78.3502 350 0 271.65 0 175C0 78.3502 78.3502 0 175 0C271.65 0 350 78.3502 350 175Z" fill="#FFBE76"/>
<path d="M86.7928 165.5C67.2928 205.5 68.3014 239.887 102.293 251C162.925 270.822 198.594 157.777 168.155 142.683C137.716 127.589 122.629 171.696 146.45 181.08C165.508 188.586 186.771 185.885 213.152 190.348" stroke="white" stroke-width="15" stroke-linecap="round" stroke-linejoin="round"/>
<path d="M223.772 140.564C213.361 179.932 204.152 227.421 216.857 268.201" stroke="white" stroke-width="15" stroke-linecap="round" stroke-linejoin="round"/>
<path d="M250.77 147.979C240.359 187.347 225.783 234.729 250.77 269.26" stroke="white" stroke-width="15" stroke-linecap="round" stroke-linejoin="round"/>
<path d="M213.152 190.348C207.505 209.414 199.494 252.206 170.272 266.612" stroke="white" stroke-width="15" stroke-linecap="round" stroke-linejoin="round"/>
<path d="M209.446 138.446L264.501 152.216" stroke="white" stroke-width="15" stroke-linecap="round" stroke-linejoin="round"/>
<path d="M223.74 140.829C223.74 105.61 222.151 81 250.738 81C279.324 81 287.702 117.606 250.738 147.979" stroke="white" stroke-width="15" stroke-linecap="round" stroke-linejoin="round"/>
<path d="M120.293 122.5C120.293 133.81 111.527 142.5 101.293 142.5C91.0589 142.5 82.2928 133.81 82.2928 122.5C82.2928 111.19 91.0589 102.5 101.293 102.5C111.527 102.5 120.293 111.19 120.293 122.5Z" stroke="white" stroke-width="15"/>
</svg>
